<svg xmlns="http://www.w3.org/2000/svg" width="128" height="128" viewBox="0 0 128 128" role="img" aria-label="Hands-On Jobs Toronto logo">
  <defs>
    <linearGradient id="g" x1="0" y1="0" x2="1" y2="1">
      <stop offset="0%" stop-color="#1a73e8"/>
      <stop offset="100%" stop-color="#1558b0"/>
    </linearGradient>
  </defs>
  <rect width="128" height="128" rx="16" fill="url(#g)"/>
  <g fill="#fff" transform="translate(16,16)">
    <circle cx="24" cy="24" r="10"/>
    <rect x="18" y="38" width="12" height="26" rx="3"/>
    <path d="M48 24c0-8.837 7.163-16 16-16s16 7.163 16 16-7.163 16-16 16-16-7.163-16-16zm4 30a6 6 0 0 1 6-6h12a6 6 0 0 1 6 6v14H52V54z"/>
    <path d="M10 72h76a6 6 0 0 1 0 12H10a6 6 0 1 1 0-12z"/>
  </g>
</svg>



